<svg width="217" height="163" viewBox="0 0 217 163" fill="none" xmlns="http://www.w3.org/2000/svg">
<path d="M212.751 160.103C209.357 158.721 203.404 155.374 193.409 147.525C183.533 139.77 171.512 134.946 158.817 134.946H158.663H158.508H158.353H158.197H158.04H157.884H157.726H157.569H157.411H157.252H157.093H156.933H156.774H156.613H156.452H156.291H156.129H155.967H155.805H155.642H155.478H155.314H155.15H154.985H154.82H154.654H154.488H154.322H154.155H153.988H153.82H153.652H153.483H153.314H153.145H152.975H152.805H152.634H152.463H152.291H152.119H151.947H151.774H151.601H151.428H151.254H151.08H150.905H150.73H150.554H150.378H150.202H150.025H149.848H149.671H149.493H149.315H149.136H148.957H148.778H148.598H148.418H148.237H148.056H147.875H147.693H147.511H147.329H147.146H146.963H146.78H146.596H146.411H146.227H146.042H145.857H145.671H145.485H145.298H145.112H144.925H144.737H144.549H144.361H144.173H143.984H143.795H143.605H143.415H143.225H143.035H142.844H142.652H142.461H142.269H142.077H141.884H141.691H141.498H141.304H141.111H140.916H140.722H140.527H140.332H140.136H139.941H139.745H139.548H139.351H139.154H138.957H138.759H138.561H138.363H138.164H137.966H137.766H137.567H137.367H137.167H136.967H136.766H136.565H136.364H136.162H135.96H135.758H135.556H135.353H135.15H134.947H134.743H134.539H134.335H134.131H133.926H133.721H133.516H133.31H133.105H132.899H132.692H132.486H132.279H132.072H131.865H131.657H131.449H131.241H131.033H130.824H130.615H130.406H130.196H129.987H129.777H129.567H129.356H129.146H128.935H128.724H128.512H128.301H128.089H127.877H127.665H127.452H127.239H127.026H126.813H126.6H126.386H126.172H125.958H125.744H125.529H125.314H125.099H124.884H124.669H124.453H124.237H124.021H123.805H123.588H123.372H123.155H122.938H122.72H122.503H122.285H122.067H121.849H121.631H121.412H121.194H120.975H120.756H120.536H120.317H120.097H119.877H119.657H119.437H119.217H118.996H118.776H118.555H118.334H118.112H117.891H117.669H117.448H117.226H117.004H116.781H116.559H116.336H116.114H115.891H115.668H115.444H115.221H114.998H114.774H114.55H114.326H114.102H113.878H113.653H113.429H113.204H112.979H112.754H112.529H112.304H112.078H111.853H111.627H111.401H111.175H110.949H110.723H110.497H110.27H110.044H109.817H109.59H109.363H109.136H108.909H108.682H108.454H108.227H107.999H107.772H107.544H107.316H107.088H106.86H106.631H106.403H106.175H105.946H105.717H105.489H105.26H105.031H104.802H104.573H104.343H104.114H103.885H103.655H103.426H103.196H102.966H102.737H102.507H102.277H102.047H101.817H101.586H101.356H101.126H100.895H100.665H100.434H100.204H99.9732H99.7425H99.5117H99.2809H99.05H98.8191H98.5881H98.3571H98.126H97.8948H97.6636H97.4324H97.2011H96.9697H96.7383H96.5069H96.2754H96.0439H95.8124H95.5808H95.3492H95.1176H94.8859H94.6542H94.4224H94.1906H93.9588H93.727H93.4952H93.2633H93.0314H92.7995H92.5676H92.3356H92.1037H91.8717H91.6397H91.4077H91.1757H90.9436H90.7116H90.4796H90.2475H90.0155H89.7834H89.5514H89.3193H89.0873H88.8552H88.6232H88.3912H88.1591H87.9271H87.6951H87.4631H87.2311H86.9992H86.7672H86.5353H86.3034H86.0715H85.8396H85.6077H85.3759H85.1441H84.9123H84.6806H84.4489H84.2172H83.9855H83.7539H83.5223H83.2908H83.0593H82.8278H82.5964H82.365H82.1336H81.9023H81.6711H81.4399H81.2087H80.9776H80.7466H80.5156H80.2846H80.0537H79.8229H79.5921H79.3614H79.1307H78.9002H78.6696H78.4392H78.2088H77.9784H77.7482H77.518H77.2879H77.0578H76.8279H76.598H76.3682H76.1385H75.9088H75.6792H75.4498H75.2204H74.991H74.7618H74.5327H74.3036H74.0747H73.8458H73.6171H73.3884H73.1598H72.9313H72.703H72.4747H72.2465H72.0184H71.7905H71.5626H71.3349H71.1073H70.8797H70.6523H70.425H70.1978H69.9708H69.7438H69.517H69.2903H69.0637H68.8372H68.6109H68.3847H68.1586H67.9327H67.7068H67.4812H67.2556H67.0302H66.8049H66.5797H66.3547H66.1299H65.9051H65.6805H65.4561H65.2318H65.0077H64.7837H64.5598H64.3361H64.1126H63.8892H63.6659H63.4429H63.2199H62.9972H62.7746H62.5521H62.3298H62.1077H61.8858H61.664H61.4424H61.221H60.9997H60.7786H60.5577H60.337H60.1164H59.896H59.6758H59.4558H59.2359H59.0163H58.7968H58.5775H58.3584H58.1395H57.9208H57.7023H57.484H57.2658H57.0479H56.8302H56.6126H56.3953H56.1782H55.9612H55.7445H55.528H55.3117H55.0956H54.8797H54.664H54.4486H54.2333H54.0183H53.8035H53.5889H53.3745H53.1603H52.9464H52.7327H52.5192H52.306H52.0929H51.8801H51.6676H51.4553H51.2432H51.0313H50.8197H50.6083H50.3971H50.1862H49.9756C23.4672 134.946 2 113.457 2 86.9457V50C2 23.4903 23.4903 2 50 2H148.845C175.354 2 196.845 23.4898 196.845 49.9994V50.1489V50.2983V50.4478V50.5972V50.7467V50.8962V51.0457V51.1952V51.3448V51.4943V51.6438V51.7934V51.9429V52.0925V52.242V52.3916V52.5411V52.6907V52.8402V52.9898V53.1393V53.2888V53.4384V53.5879V53.7374V53.8869V54.0364V54.1859V54.3353V54.4848V54.6342V54.7836V54.933V55.0824V55.2317V55.3811V55.5304V55.6797V55.8289V55.9782V56.1274V56.2766V56.4257V56.5749V56.724V56.873V57.0221V57.1711V57.32V57.4689V57.6178V57.7667V57.9155V58.0643V58.213V58.3617V58.5103V58.6589V58.8075V58.956V59.1044V59.2528V59.4012V59.5495V59.6977V59.8459V59.9941V60.1422V60.2902V60.4382V60.5861V60.7339V60.8817V61.0294V61.1771V61.3247V61.4722V61.6197V61.7671V61.9144V62.0617V62.2089V62.356V62.503V62.65V62.7969V62.9437V63.0905V63.2371V63.3837V63.5302V63.6766V63.823V63.9692V64.1154V64.2615V64.4075V64.5534V64.6992V64.8449V64.9905V65.1361V65.2815V65.4269V65.5721V65.7173V65.8623V66.0073V66.1522V66.2969V66.4416V66.5861V66.7306V66.8749V67.0192V67.1633V67.3073V67.4512V67.595V67.7387V67.8823V68.0257V68.1691V68.3123V68.4554V68.5984V68.7412V68.884V69.0266V69.1691V69.3115V69.4537V69.5958V69.7378V69.8797V70.0215V70.1631V70.3045V70.4459V70.5871V70.7282V70.8691V71.0099V71.1506V71.2911V71.4315V71.5717V71.7118V71.8517V71.9916V72.1312V72.2707V72.4101V72.5493V72.6884V72.8273V72.9661V73.1047V73.2431V73.3814V73.5196V73.6575V73.7954V73.933V74.0705V74.2079V74.3451V74.4821V74.6189V74.7556V74.8921V75.0285V75.1646V75.3006V75.4365V75.5721V75.7076V75.8429V75.978V76.113V76.2478V76.3824V76.5168V76.651V76.7851V76.9189V77.0526V77.1861V77.3194V77.4525V77.5855V77.7182V77.8508V77.9831V78.1153V78.2472V78.379V78.5106V78.642V78.7731V78.9041V79.0349V79.1655V79.2958V79.426V79.5559V79.6857V79.8152V79.9446V80.0737V80.2026V80.3313V80.4598V80.5881V80.7161V80.844V80.9716V81.099V81.2262V81.3531V81.4799V81.6064V81.7327V81.8588V81.9846V82.1102V82.2356V82.3608V82.4857V82.6104V82.7348V82.8591V82.9831V83.1068V83.2303V83.3536V83.4766V83.5994V83.722V83.8443V83.9664V84.0882V84.2098V84.3311V84.4522V84.5731V84.6936V84.814V84.9341V85.0539V85.1735V85.2928V85.4118V85.5307V85.6492V85.7675V85.8855V86.0033V86.1208V86.238V86.355V86.4717V86.5881V86.7043V86.8202V86.9358V87.0511V87.1662V87.281V87.3956V87.5098V87.6238V87.7375V87.8509V87.964V88.0769V88.1895V88.3018V88.4138V88.5255V88.6369V88.7481V88.8589V88.9695V89.0797V89.1897V89.2994V89.4088V89.5179V89.6267V89.7352V89.8434V89.9513V90.0589V90.1662V90.2732V90.3799V90.4862V90.5923V90.6981V90.8035V90.9087V91.0135V91.118V91.2223V91.3262V91.4297V91.533V91.636V91.7386V91.8409V91.9429V92.0445V92.1459V92.2469V92.3476V92.448V92.548V92.6477V92.7471V92.8462V92.9449V93.0433V93.1413V93.239V93.3364V93.4335V93.5302V93.6265V93.7226V93.8183V93.9136V94.0086V94.1032V94.1976V94.2915V94.3851V94.4784V94.5713V94.6639V94.7561V94.8479V94.9394V95.0306V95.1214V95.2118V95.3019V95.3916V95.4809V95.5699V95.6586V95.7468V95.8347V95.9223V96.0094V96.0962V96.1826V96.2687V96.3544V96.4397V96.5246V96.6092V96.6934V96.7772V96.8606V96.9436V97.0263V97.1086V97.1905V97.272V97.3532V97.4339V97.5143V97.5942V97.6738V97.753V97.8318V97.9102V97.9882V98.0659V98.1431V98.2199V98.2963V98.3724V98.448V98.5232V98.5981V98.6725V98.7465V98.8201V98.8933V98.9661V99.0385V99.1105V99.1821V99.2532V99.324V99.3943V99.4642V99.5337V99.6028V99.6715V99.7397V99.8075V99.8749V99.9419V100.008V100.075V100.14V100.206V100.27V100.335V100.399V100.462V100.525V100.588V100.65V100.712V100.774V100.835V100.895V100.955V101.015V101.074V101.133V101.191V101.249V101.306V101.363V101.42V101.476V101.531V101.586V101.641V101.695V101.749V101.802V101.855V101.908V101.96V102.011V102.062V102.113V102.163V102.213V102.262V102.31V102.359V102.406V102.454V102.5V102.547V102.593V102.638V102.683V102.727V102.771V102.815V102.858V102.9V102.942V102.984V103.025V103.066V103.106V103.145V103.185V103.223V103.261V103.299V103.336V103.373V103.409V103.445V103.48V103.514V103.549V103.582V103.615V103.648V103.68V103.712V103.743V103.774V103.804V103.833V103.863V103.891V103.919V103.947V103.974V104V104.026V104.052V104.077V104.101V104.125V104.149V104.172V104.194V104.216V104.237V104.258V104.278V104.298V104.317V104.336V104.354V104.372V104.389V104.405V104.421C196.845 122.101 201.473 136.983 206.093 147.437C208.404 152.666 210.717 156.798 212.459 159.632C212.559 159.793 212.656 159.95 212.751 160.103Z" fill="white" stroke="black" stroke-width="4"/>
</svg>
